<?xml version="1.0" encoding="UTF-8"?>
<svg width="30px" height="13px" viewBox="0 0 30 13" version="1.1" xmlns="http://www.w3.org/2000/svg" xmlns:xlink="http://www.w3.org/1999/xlink">
    <!-- Generator: Sketch 41.2 (35397) - http://www.bohemiancoding.com/sketch -->
    <title>Page 1</title>
    <desc>Created with Sketch.</desc>
    <defs></defs>
    <g id="Page-1" stroke="none" stroke-width="1" fill="none" fill-rule="evenodd">
        <g id="iPhone-7-Copy-15" transform="translate(-17.000000, -40.000000)" fill="#FFFFFF">
            <path d="M20.83575,45.22675 L24.14475,41.92175 C24.58175,41.48075 24.58175,40.76975 24.14475,40.32775 C23.70275,39.89075 22.99175,39.89075 22.55075,40.32775 L17.32775,45.55075 C16.89075,45.99275 16.89075,46.70275 17.32775,47.14475 C19.89475,49.70675 22.14875,51.96075 22.54675,52.35975 C22.98475,52.80075 23.69875,52.80075 24.13675,52.35975 C24.57775,51.92175 24.57775,51.20675 24.13675,50.76975 L20.84375,47.47675 L45.87075,47.47675 C46.16775,47.47675 46.45275,47.35975 46.66775,47.14875 C46.87875,46.93775 46.99575,46.65275 46.99575,46.35175 C46.99575,46.05475 46.87875,45.76975 46.66775,45.55475 C46.45275,45.34375 46.16775,45.22675 45.87075,45.22675 L20.83575,45.22675 Z" id="Page-1"></path>
        </g>
    </g>
</svg>