<?xml version="1.0" encoding="UTF-8"?>
<svg width="30px" height="13px" viewBox="0 0 30 13" version="1.1" xmlns="http://www.w3.org/2000/svg" xmlns:xlink="http://www.w3.org/1999/xlink">
    <!-- Generator: Sketch 41.2 (35397) - http://www.bohemiancoding.com/sketch -->
    <title>Page 1 Copy</title>
    <desc>Created with Sketch.</desc>
    <defs></defs>
    <g id="Page-1" stroke="none" stroke-width="1" fill="none" fill-rule="evenodd">
        <g id="iPhone-7-Copy-20" transform="translate(-312.000000, -628.000000)" fill="#343845">
            <g id="Group-6" transform="translate(17.000000, 412.000000)">
                <path d="M298.83575,221.22675 L302.14475,217.92175 C302.58175,217.48075 302.58175,216.76975 302.14475,216.32775 C301.70275,215.89075 300.99175,215.89075 300.55075,216.32775 L295.32775,221.55075 C294.89075,221.99275 294.89075,222.70275 295.32775,223.14475 C297.89475,225.70675 300.14875,227.96075 300.54675,228.35975 C300.98475,228.80075 301.69875,228.80075 302.13675,228.35975 C302.57775,227.92175 302.57775,227.20675 302.13675,226.76975 L298.84375,223.47675 L323.87075,223.47675 C324.16775,223.47675 324.45275,223.35975 324.66775,223.14875 C324.87875,222.93775 324.99575,222.65275 324.99575,222.35175 C324.99575,222.05475 324.87875,221.76975 324.66775,221.55475 C324.45275,221.34375 324.16775,221.22675 323.87075,221.22675 L298.83575,221.22675 Z" id="Page-1-Copy" transform="translate(309.997875, 222.345250) rotate(-180.000000) translate(-309.997875, -222.345250) "></path>
            </g>
        </g>
    </g>
</svg>