<?xml version="1.0" encoding="UTF-8"?>
<svg width="28px" height="29px" viewBox="0 0 28 29" version="1.1" xmlns="http://www.w3.org/2000/svg" xmlns:xlink="http://www.w3.org/1999/xlink">
    <!-- Generator: Sketch 41.2 (35397) - http://www.bohemiancoding.com/sketch -->
    <title>Group 2 Copy</title>
    <desc>Created with Sketch.</desc>
    <defs>
        <polygon id="path-1" points="6.92080333 0.0559351595 0 0.0559351595 0 6.26739479 6.92080333 6.26739479 6.92080333 0.0559351595"></polygon>
    </defs>
    <g id="Page-1" stroke="none" stroke-width="1" fill="none" fill-rule="evenodd">
        <g id="iPhone-7-Copy-15" transform="translate(-284.000000, -720.000000)">
            <g id="Group-4" transform="translate(0.000000, 668.000000)">
                <g id="Group-3">
                    <g id="Group-2-Copy" transform="translate(284.000000, 52.000000)">
                        <path d="M11.6546625,27.5859565 L4.9902751,27.5859565 L4.77512885,25.3000544 C4.74640949,24.9954315 4.47941344,24.7720824 4.17744506,24.8008331 C3.87603004,24.8299194 3.65501818,25.1003099 3.68362688,25.4050447 L3.94603004,28.1926293 C3.97281265,28.4771155 4.20909723,28.6943117 4.4918087,28.6943117 L11.6546625,28.6943117 C11.9575162,28.6943117 12.2028759,28.4461834 12.2028759,28.1401621 C12.2028759,27.8341409 11.9575162,27.5859565 11.6546625,27.5859565" id="Fill-1" fill="#4A4A4A"></path>
                        <path d="M25.2895225,11.4164891 C25.2895225,11.1104119 25.0441075,10.8623395 24.7413091,10.8623395 L14.2165739,10.8623395 C13.9137755,10.8623395 13.6683605,11.1104119 13.6683605,11.4164891 C13.6683605,11.7225663 13.9137755,11.9706387 14.2165739,11.9706387 L24.7413091,11.9706387 C25.0441075,11.9706387 25.2895225,11.7225663 25.2895225,11.4164891" id="Fill-3" fill="#4A4A4A"></path>
                        <path d="M4.49119447,15.2690232 C4.49119447,15.5750445 4.73660949,15.8231729 5.03940791,15.8231729 L10.7045937,15.8231729 C11.0074474,15.8231729 11.2527518,15.5750445 11.2527518,15.2690232 C11.2527518,14.962946 11.0074474,14.7148736 10.7045937,14.7148736 L5.03940791,14.7148736 C4.73660949,14.7148736 4.49119447,14.962946 4.49119447,15.2690232" id="Fill-5" fill="#4A4A4A"></path>
                        <path d="M4.1146,24.132833 C4.41601502,24.1038586 4.63708221,23.8333562 4.60847352,23.5286774 L3.16625217,8.20557603 L10.142181,8.20557603 C10.4449794,8.20557603 10.6903945,7.95744767 10.6903945,7.65148234 C10.6903945,7.34540515 10.4449794,7.09727678 10.142181,7.09727678 L2.56347747,7.09727678 C2.40909012,7.09727678 2.26178577,7.16311247 2.15786482,7.27861857 C2.05399921,7.39406874 2.00309012,7.54850571 2.01769881,7.70389359 L3.51697154,23.6336677 C3.54392016,23.9205032 3.78269486,24.1353501 4.06208617,24.1353501 C4.07935099,24.1353501 4.09700316,24.1345111 4.1146,24.132833" id="Fill-7" fill="#4A4A4A"></path>
                        <path d="M27.8068221,1.62647138 C27.7031225,1.51348236 27.5574783,1.44932473 27.4050277,1.44932473 L11.5528775,1.44932473 C11.4003715,1.44932473 11.2547826,1.51348236 11.151083,1.62647138 C11.0473281,1.73951634 10.9948142,1.89098875 11.0062134,2.04469857 L12.9352806,28.1817443 C12.9566403,28.471041 13.195083,28.6946697 13.482,28.6946697 L25.4759051,28.6946697 C25.7628221,28.6946697 26.0013202,28.471041 26.0225692,28.1817443 L27.5849249,7.01330692 C27.6073913,6.70806876 27.3809012,6.44220894 27.0789881,6.41944333 C26.7772964,6.39628618 26.5140079,6.62562033 26.4914308,6.93080256 L24.9670909,27.5863705 L13.9908142,27.5863705 L12.1435336,2.55756805 L26.8143715,2.55756805 L26.6434387,4.87345146 C26.620917,5.17868962 26.8474625,5.44454944 27.1493755,5.46725911 C27.4508458,5.48963318 27.7143557,5.26108211 27.7368775,4.95589988 L27.9516917,2.04469857 C27.9630356,1.89093282 27.9105217,1.73940447 27.8068221,1.62647138" id="Fill-9" fill="#4A4A4A"></path>
                        <mask id="mask-2" fill="white">
                            <use xlink:href="#path-1"></use>
                        </mask>
                        <g id="Clip-12"></g>
                        <path d="M5.83957708,5.84318254 C5.90016996,6.09701629 6.12455731,6.26739479 6.37201976,6.26739479 C6.41462846,6.26739479 6.45790119,6.26230469 6.50117391,6.25184481 C6.79545059,6.1799122 6.97645455,5.88054722 6.90534783,5.58308405 L5.68601976,0.479951636 C5.64872332,0.323948476 5.54629644,0.1919415 5.4053004,0.118051154 C5.26424901,0.0442167436 5.09851779,0.0357705345 4.95088142,0.0950058685 L0.34615415,1.94220858 C0.064715415,2.05508573 -0.0729051383,2.37727225 0.0388181818,2.66170253 C0.15043083,2.94624469 0.469332016,3.08507576 0.750549407,2.97242235 L4.76843874,1.36065072 L5.83957708,5.84318254 Z" id="Fill-11" fill="#4A4A4A" mask="url(#mask-2)"></path>
                        <path d="M22.5563905,15.1088082 C22.8591889,15.1088082 23.104604,15.3569365 23.104604,15.6629578 C23.104604,15.969035 22.8591889,16.2171074 22.5563905,16.2171074 C22.2535921,16.2171074 22.0081771,15.969035 22.0081771,15.6629578 C22.0081771,15.3569365 22.2535921,15.1088082 22.5563905,15.1088082" id="Fill-14" fill="#4A4A4A" mask="url(#mask-2)"></path>
                        <path d="M18.0084103,18.7861645 C18.3112087,18.7861645 18.5566237,19.0342929 18.5566237,19.3403142 C18.5566237,19.6463914 18.3112087,19.8944638 18.0084103,19.8944638 C17.7056119,19.8944638 17.4601968,19.6463914 17.4601968,19.3403142 C17.4601968,19.0342929 17.7056119,18.7861645 18.0084103,18.7861645" id="Fill-16" fill="#4A4A4A" mask="url(#mask-2)"></path>
                        <path d="M21.7764466,21.2820529 C22.0792451,21.2820529 22.3246601,21.5301812 22.3246601,21.8362025 C22.3246601,22.1422797 22.0792451,22.3903521 21.7764466,22.3903521 C21.4737036,22.3903521 21.2282885,22.1422797 21.2282885,21.8362025 C21.2282885,21.5301812 21.4737036,21.2820529 21.7764466,21.2820529" id="Fill-18" fill="#4A4A4A" mask="url(#mask-2)"></path>
                    </g>
                </g>
            </g>
        </g>
    </g>
</svg>