<?xml version="1.0" encoding="UTF-8"?>
<svg width="21px" height="29px" viewBox="0 0 21 29" version="1.1" xmlns="http://www.w3.org/2000/svg" xmlns:xlink="http://www.w3.org/1999/xlink">
    <!-- Generator: Sketch 41.2 (35397) - http://www.bohemiancoding.com/sketch -->
    <title>Group 2</title>
    <desc>Created with Sketch.</desc>
    <defs>
        <polygon id="path-1" points="8.1108 0.0564202335 0 0.0564202335 0 28.9434895 8.1108 28.9434895"></polygon>
    </defs>
    <g id="Page-1" stroke="none" stroke-width="1" fill="none" fill-rule="evenodd">
        <g id="iPhone-7-Copy-15" transform="translate(-60.000000, -720.000000)">
            <g id="Group-4" transform="translate(0.000000, 668.000000)">
                <g id="Group-3">
                    <g id="Group-2" transform="translate(60.000000, 52.000000)">
                        <g id="Group">
                            <path d="M16.5004245,20.3488486 C16.7999717,20.3488486 17.054066,20.581977 17.0788585,20.8795938 L17.5298208,26.3011268 C17.5669528,26.747016 17.419783,27.1739479 17.1158208,27.5031599 C16.8118585,27.8324284 16.3972358,28.0136502 15.9482547,28.0136502 C15.4993302,28.0136502 15.0846509,27.8323156 14.7806887,27.5031035 C14.4766698,27.1738914 14.3296698,26.747016 14.3668585,26.3011268 L14.8177075,20.8795938 C14.8424434,20.581977 15.0965377,20.3488486 15.3961415,20.3488486 L16.5004245,20.3488486 Z M16.7131415,15.1203856 C16.9708585,15.1203856 17.1796698,14.9121949 17.1796698,14.65537 L17.1796698,13.1047163 C19.6209906,12.6246366 20.9946509,10.6494206 20.9946509,7.51984669 C20.9946509,5.94143424 20.6618208,4.43794786 20.0321604,3.1721035 C19.9176509,2.94202179 19.6379151,2.84796926 19.4069151,2.96199455 C19.1760849,3.07607626 19.0817264,3.35513074 19.1961226,3.58521245 C19.7623868,4.72337782 20.0615377,6.08395175 20.0615377,7.51979027 C20.0615377,11.4624926 17.8247264,12.290121 15.9481981,12.290121 C14.0717264,12.290121 11.8348019,11.4624926 11.8348019,7.51979027 C11.8348019,5.76483891 12.283783,4.12126109 13.0988774,2.89169494 C13.8747453,1.72159572 14.8865943,1.07710739 15.9481981,1.07710739 C17.1073868,1.07710739 17.9591038,1.82145953 18.4695,2.44586226 C18.6321226,2.64496926 18.926066,2.67481556 19.1258774,2.51266381 C19.3255755,2.35039922 19.3555189,2.05746537 19.1928396,1.85841479 C18.2908585,0.75494786 17.1385189,0.147245525 15.9482547,0.147245525 C14.5631604,0.147245525 13.2749151,0.939836965 12.3206321,2.3790607 C11.4057453,3.75893035 10.9018585,5.58468911 10.9018585,7.51990311 C10.9018585,10.649477 12.2755189,12.6246366 14.7168396,13.1047728 L14.7168396,19.5817591 C14.2610094,19.8128564 13.9323113,20.2677728 13.8878208,20.8027494 L13.4369151,26.2243389 C13.3788962,26.9221444 13.6184434,27.6178623 14.0941415,28.1330354 C14.5699528,28.6482086 15.2457453,28.9436813 15.9482547,28.9436813 C16.6507075,28.9436813 17.3265566,28.648265 17.8023113,28.1330918 C18.278066,27.6179187 18.5177264,26.9222008 18.4596509,26.2243953 L18.0086887,20.8028623 C17.9641415,20.2678856 17.6355,19.8129128 17.1796698,19.5818156 L17.1796698,16.2054595 C17.1796698,15.9487475 16.9708585,15.7405004 16.7131415,15.7405004 C16.4554245,15.7405004 16.2466132,15.9487475 16.2466132,16.2054595 L16.2466132,19.4189868 L15.6498962,19.4189868 L15.6498962,13.2140588 C15.7479906,13.218121 15.8474434,13.2202086 15.9482547,13.2202086 C16.0491226,13.2202086 16.1485189,13.218121 16.2466132,13.2140588 L16.2466132,14.65537 C16.2466132,14.9121949 16.4554811,15.1203856 16.7131415,15.1203856 L16.7131415,15.1203856 Z" id="Fill-1" fill="#4A4A4A"></path>
                            <mask id="mask-2" fill="white">
                                <use xlink:href="#path-1"></use>
                            </mask>
                            <g id="Clip-4"></g>
                        </g>
                        <path d="M4.44893208,19.4188514 L3.85221509,19.4188514 L3.85221509,13.0986004 C3.91963019,13.1018728 3.9873283,13.1040732 4.05530943,13.1040732 C4.18810189,13.1040732 4.31936604,13.0972463 4.44893208,13.084721 L4.44893208,19.4188514 Z M5.31819623,27.5030245 C5.01417736,27.8322366 4.59944151,28.0135712 4.15057358,28.0135712 C3.70176226,28.0135712 3.28708302,27.8322366 2.98306415,27.5030809 C2.67898868,27.1739253 2.53193208,26.7469934 2.56912075,26.3010479 L3.02008302,20.8795712 C3.04476226,20.5818981 3.2988566,20.3487696 3.59851698,20.3487696 L4.7027434,20.3487696 C5.00234717,20.3487696 5.25644151,20.5818981 5.28117736,20.8795712 L5.73208302,26.3010479 C5.76915849,26.7469934 5.62221509,27.1738689 5.31819623,27.5030245 L5.31819623,27.5030245 Z M7.6442717,0.0563863813 C7.38655472,0.0563863813 7.1777434,0.264577043 7.1777434,0.521401946 L7.1777434,7.32415875 C7.1777434,7.72525019 6.85040377,8.05158482 6.44800755,8.05158482 C6.04561132,8.05158482 5.71815849,7.72525019 5.71815849,7.32415875 L5.71815849,0.521401946 C5.71815849,0.264577043 5.50934717,0.0563863813 5.25163019,0.0563863813 C4.99391321,0.0563863813 4.78510189,0.264577043 4.78510189,0.521401946 L4.78510189,7.32415875 C4.78510189,7.72525019 4.45776226,8.05158482 4.05536604,8.05158482 C3.65296981,8.05158482 3.32563019,7.72525019 3.32563019,7.32415875 L3.32563019,0.521401946 C3.32563019,0.264577043 3.11676226,0.0563863813 2.85910189,0.0563863813 C2.60138491,0.0563863813 2.39257358,0.264577043 2.39257358,0.521401946 L2.39257358,7.32415875 C2.39257358,7.72525019 2.06517736,8.05158482 1.66278113,8.05158482 C1.26038491,8.05158482 0.933045283,7.72525019 0.933045283,7.32415875 L0.933045283,0.521401946 C0.933045283,0.264577043 0.724233962,0.0563863813 0.466516981,0.0563863813 C0.2088,0.0563863813 -1.13207548e-05,0.264577043 -1.13207548e-05,0.521401946 L-1.13207548e-05,9.06184553 C-1.13207548e-05,9.75626576 0.179762264,10.4413767 0.519837736,11.0430984 C0.605479245,11.1946996 0.763743396,11.2799506 0.92670566,11.2799506 C1.00425283,11.2799506 1.08287547,11.2605984 1.1552717,11.2200323 C1.37970566,11.0939331 1.45923396,10.810365 1.33278113,10.5866023 C1.0712717,10.1239564 0.933045283,9.59665292 0.933045283,9.06173268 L0.933045283,8.8130323 C1.15346038,8.92085136 1.40110189,8.98155953 1.66278113,8.98155953 C2.13219623,8.98155953 2.55644151,8.78640195 2.85910189,8.47355175 C3.16170566,8.78640195 3.58595094,8.98155953 4.05536604,8.98155953 C4.52472453,8.98155953 4.94902642,8.78640195 5.25163019,8.47355175 C5.55434717,8.78640195 5.97859245,8.98155953 6.44800755,8.98155953 C6.70968679,8.98155953 6.9573283,8.92085136 7.1777434,8.8130323 L7.1777434,9.06173268 C7.1777434,10.7778669 5.77702642,12.1740984 4.05530943,12.1740984 C3.38195094,12.1740984 2.7408566,11.9638767 2.20125283,11.5662833 C1.99396981,11.4135537 1.70183774,11.4572794 1.54872453,11.663721 C1.39561132,11.8702191 1.43936604,12.1614603 1.64647925,12.314077 C2.03534717,12.6006354 2.4648,12.8119292 2.91915849,12.943614 L2.91915849,19.5816802 C2.4633283,19.812721 2.13463019,20.2676938 2.09013962,20.802614 L1.63917736,26.2242035 C1.58110189,26.9220089 1.82070566,27.6177268 2.29651698,28.1329 C2.77221509,28.6480732 3.44806415,28.9434895 4.15057358,28.9434895 C4.85308302,28.9434895 5.52881887,28.6480167 6.00468679,28.1328436 C6.48038491,27.6176704 6.71993208,26.9219525 6.66191321,26.2241471 L6.21100755,20.8025576 C6.16646038,20.2676374 5.83781887,19.8126646 5.38193208,19.5816237 L5.38193208,12.8808183 C6.96842264,12.3316802 8.1108,10.827686 8.1108,9.06173268 L8.1108,0.521401946 C8.1108,0.264577043 7.90198868,0.0563863813 7.6442717,0.0563863813 L7.6442717,0.0563863813 Z" id="Fill-3" fill="#4A4A4A"></path>
                    </g>
                </g>
            </g>
        </g>
    </g>
</svg>