<?xml version="1.0" encoding="UTF-8"?>
<svg width="30px" height="30px" viewBox="0 0 30 30" version="1.1" xmlns="http://www.w3.org/2000/svg" xmlns:xlink="http://www.w3.org/1999/xlink">
    <!-- Generator: Sketch 41.2 (35397) - http://www.bohemiancoding.com/sketch -->
    <title>Group</title>
    <desc>Created with Sketch.</desc>
    <defs></defs>
    <g id="Page-1" stroke="none" stroke-width="1" fill="none" fill-rule="evenodd">
        <g id="iPhone-7-Copy-21" transform="translate(-327.000000, -32.000000)" fill="#FFFFFF">
            <g id="Group" transform="translate(327.000000, 32.000000)">
                <path d="M16.7612647,9.31641176 L13.0183235,9.31641176 C12.3186176,9.31641176 11.7464118,9.81802941 11.7464118,10.4317059 C11.7464118,11.0449412 12.3186176,11.5465588 13.0183235,11.5465588 L16.7612647,11.5465588 C17.4609706,11.5465588 18.0331765,11.0449412 18.0331765,10.4317059 C18.0331765,9.81802941 17.4609706,9.31641176 16.7612647,9.31641176" id="Fill-1"></path>
                <path d="M16.7612647,18.2329853 L13.0183235,18.2329853 C12.3186176,18.2329853 11.7464118,18.7346029 11.7464118,19.3478382 C11.7464118,19.9615147 12.3186176,20.4631324 13.0183235,20.4631324 L16.7612647,20.4631324 C17.4609706,20.4631324 18.0331765,19.9615147 18.0331765,19.3478382 C18.0331765,18.7346029 17.4609706,18.2329853 16.7612647,18.2329853" id="Fill-3"></path>
                <path d="M20.0718088,13.7747206 L9.70769118,13.7747206 C9.00798529,13.7747206 8.43577941,14.2763382 8.43577941,14.8895735 C8.43577941,15.50325 9.00798529,16.0048676 9.70769118,16.0048676 L20.0735735,16.0048676 C20.7732794,16.0048676 21.3454853,15.50325 21.3454853,14.8895735 C21.3454853,14.2781029 20.7715147,13.7747206 20.0718088,13.7747206" id="Fill-5"></path>
                <path d="M14.8897059,0 C6.67985294,0 0,6.67985294 0,14.8897059 C0,23.0995588 6.67985294,29.7794118 14.8897059,29.7794118 C23.0995588,29.7794118 29.7794118,23.0995588 29.7794118,14.8897059 C29.7794118,6.67985294 23.0995588,0 14.8897059,0 M14.8897059,28.0319118 C7.64294118,28.0319118 1.7475,22.1364706 1.7475,14.8897059 C1.7475,7.64294118 7.64294118,1.7475 14.8897059,1.7475 C22.1364706,1.7475 28.0319118,7.64294118 28.0319118,14.8897059 C28.0319118,22.1364706 22.1364706,28.0319118 14.8897059,28.0319118" id="Fill-7"></path>
            </g>
        </g>
    </g>
</svg>