<?xml version="1.0" encoding="UTF-8"?>
<svg width="57px" height="51px" viewBox="0 0 57 51" version="1.1" xmlns="http://www.w3.org/2000/svg" xmlns:xlink="http://www.w3.org/1999/xlink">
    <!-- Generator: Sketch 41.2 (35397) - http://www.bohemiancoding.com/sketch -->
    <title>Group 7</title>
    <desc>Created with Sketch.</desc>
    <defs>
        <polygon id="path-1" points="0 8.00698714 0 29.0712673 56.9999666 29.0712673 56.9999666 8.00698714 0 8.00698714"></polygon>
        <polygon id="path-3" points="31.6973437 0.795423851 25.3027676 0.795423851 25.3027676 7.10562275 31.6973437 7.10562275"></polygon>
    </defs>
    <g id="Page-1" stroke="none" stroke-width="1" fill="none" fill-rule="evenodd">
        <g id="iPhone-7-Copy-20" transform="translate(-160.000000, -1245.000000)">
            <g id="Group-3" transform="translate(0.000000, 1231.000000)">
                <g id="Group-7" transform="translate(160.000000, 14.000000)">
                    <path d="M40.9172162,31.3050524 L33.0582299,37.367612 C32.6174818,37.707509 32.0671869,37.8926178 31.5075404,37.8866856 L22.8066908,37.8065999 C22.353808,37.8024254 21.9749584,37.4498948 21.9440092,37.0039858 C21.9274213,36.7629599 22.0103607,36.5330296 22.1779096,36.3565995 C22.3447904,36.1807187 22.5708979,36.0841545 22.8147064,36.0841545 L22.8171557,36.0841545 L30.3919213,36.1039287 L30.3994916,36.1039287 C31.8868354,36.1039287 33.1492963,34.9602092 33.2753197,33.4972456 C33.3428959,32.7148452 33.0898471,31.9597991 32.563265,31.3710763 C32.0364604,30.7823535 31.3083744,30.441248 30.5133803,30.4102684 L18.4243705,29.940191 C17.9180502,29.9204168 17.4074994,29.9457937 16.9065229,30.0156626 C14.6634838,30.3277659 12.6985424,31.8178641 11.7786381,33.9042652 C10.9434545,35.7986366 9.6629584,37.511854 8.07541934,38.858589 L5.71537441,40.8607299 C5.32361074,41.1931567 5.27907949,41.7759473 5.6159584,42.1625335 C5.80087441,42.3748868 6.06260684,42.4838648 6.3256752,42.4838648 C6.54154043,42.4838648 6.75851895,42.4104804 6.93497402,42.2607455 L9.29501895,40.2583849 C11.0951947,38.7312649 12.5471361,36.7887763 13.4940932,34.6406356 C14.1564955,33.1384532 15.564017,32.0667997 17.1676986,31.8434608 C17.5581264,31.7891915 17.9560131,31.7693074 18.3504486,31.7845775 L30.4395697,32.2548746 C30.719226,32.2656406 30.9752807,32.3856043 31.1605307,32.5927943 C31.3456693,32.7997645 31.4348432,33.0652885 31.4109076,33.3406996 C31.3667104,33.8553789 30.9226225,34.2576747 30.3993803,34.2576747 L30.3968197,34.2576747 L22.8219428,34.2377906 L22.8148178,34.2377906 C22.0586771,34.2377906 21.3292553,34.549784 20.8122475,35.0944542 C20.2936811,35.6407723 20.0258256,36.3826355 20.0773705,37.1294424 C20.1741146,38.5311058 21.3652143,39.6394514 22.7889896,39.6524146 L31.4897279,39.73261 C32.4700834,39.7405197 33.4371908,39.4183096 34.2103646,38.8218968 L42.0694623,32.7593372 C42.64681,32.3137579 43.4807689,32.3883507 43.9676068,32.9293956 C44.2154232,33.204587 44.3392201,33.5585457 44.3163979,33.925907 C44.2935756,34.2932683 44.1268061,34.6296499 43.8469271,34.8729828 L38.1853354,39.7931412 C37.7976908,40.1300721 37.7602846,40.7134119 38.1017279,41.0958236 C38.4431713,41.4783451 39.0343236,41.5154767 39.4218568,41.1784359 L45.08356,36.2582776 C45.7395053,35.6881206 46.130267,34.8998978 46.1839271,34.0388399 C46.2373646,33.1776721 45.9471322,32.3481431 45.3664447,31.7030637 C44.2254428,30.4358651 42.2710775,30.2607532 40.9172162,31.3050524" id="Fill-1" fill="#FFFFFF"></path>
                    <path d="M35.6671822,41.9818739 L33.8309361,43.5775445 C32.9930807,44.3056757 31.916983,44.7118164 30.8006959,44.7212641 L17.324649,44.8345265 C16.399067,44.8422165 15.5128951,45.1857388 14.8294518,45.8017061 L10.8864322,49.3559045 C10.5047994,49.6996465 10.478192,50.2836455 10.826649,50.660015 C11.0111197,50.8594052 11.2639459,50.9604735 11.5176627,50.9604735 C11.7428795,50.9604735 11.9688756,50.8808273 12.1482252,50.7190082 L16.0913561,47.1650295 C16.4335787,46.8565515 16.8772213,46.6845157 17.3406803,46.6805609 L30.8167271,46.5672985 C32.3827799,46.5542255 33.8923893,45.9845079 35.0675689,44.9631689 L36.903815,43.3673884 C37.2914596,43.0305673 37.3290885,42.4471176 36.9874225,42.0645961 C36.6460904,41.6820746 36.0549381,41.6450529 35.6671822,41.9818739" id="Fill-3" fill="#FFFFFF"></path>
                    <mask id="mask-2" fill="white">
                        <use xlink:href="#path-1"></use>
                    </mask>
                    <g id="Clip-6"></g>
                    <path d="M56.0645877,27.2249034 L48.8883768,27.2249034 C48.3977537,16.5460495 39.4410721,8.00698714 28.4999666,8.00698714 C21.7091736,8.00698714 15.382285,11.3264214 11.5756424,16.886386 C11.2864119,17.3088954 11.3989646,17.8826777 11.8270213,18.1680858 C12.2550779,18.453384 12.8367674,18.3425384 13.1259979,17.920029 C16.5841834,12.8687016 22.3313865,9.8532412 28.4999666,9.8532412 C38.4091717,9.8532412 46.5274412,17.5644224 47.0163943,27.2249034 L9.98320488,27.2249034 C10.0915271,25.0555604 10.5821502,22.9518019 11.4461678,20.9587791 C11.6493416,20.4901298 11.4290232,19.9475469 10.9539861,19.7470581 C10.4790604,19.5465694 9.92921074,19.7639761 9.72603691,20.2327352 C8.76204668,22.4562377 8.22088066,24.8045375 8.11111113,27.2251231 L0.935456836,27.2251231 C0.418894336,27.2251231 -3.33984376e-05,27.6384046 -3.33984376e-05,28.1481403 C-3.33984376e-05,28.6579859 0.418894336,29.0712673 0.935456836,29.0712673 L56.0645877,29.0712673 C56.5812615,29.0712673 56.9999666,28.6579859 56.9999666,28.1481403 C56.9999666,27.6384046 56.5812615,27.2249034 56.0645877,27.2249034" id="Fill-5" fill="#FFFFFF"></path>
                    <mask id="mask-4" fill="white">
                        <use xlink:href="#path-3"></use>
                    </mask>
                    <g id="Clip-9"></g>
                    <path d="M28.5,2.64169989 C29.2313145,2.64169989 29.8264746,3.2288847 29.8264746,3.95064414 C29.8264746,4.67229373 29.2313145,5.2595884 28.5,5.2595884 C27.7685742,5.2595884 27.1736367,4.67229373 27.1736367,3.95064414 C27.1736367,3.2288847 27.7685742,2.64169989 28.5,2.64169989 M28.5,7.10562275 C30.2629922,7.10562275 31.6973437,5.69022721 31.6973437,3.95053428 C31.6973437,2.21084136 30.2629922,0.795335965 28.5,0.795335965 C26.7370078,0.795335965 25.3027676,2.21084136 25.3027676,3.95053428 C25.3027676,5.69022721 26.7370078,7.10562275 28.5,7.10562275" id="Fill-8" fill="#FFFFFF"></path>
                </g>
            </g>
        </g>
    </g>
</svg>